<svg width="40" height="40" viewBox="0 0 40 40" fill="none" xmlns="http://www.w3.org/2000/svg">
<path d="M3.33301 36.6667V6.66671C3.33301 5.75004 3.6594 4.96532 4.31217 4.31254C4.96495 3.65976 5.74967 3.33337 6.66634 3.33337H33.333C34.2497 3.33337 35.0344 3.65976 35.6872 4.31254C36.34 4.96532 36.6663 5.75004 36.6663 6.66671V26.6667C36.6663 27.5834 36.34 28.3681 35.6872 29.0209C35.0344 29.6737 34.2497 30 33.333 30H9.99967L3.33301 36.6667ZM8.58301 26.6667H33.333V6.66671H6.66634V28.5417L8.58301 26.6667Z" fill="#FFF4F4"/>
<line x1="10" y1="11.5" x2="30" y2="11.5" stroke="white"/>
<line x1="10" y1="21.5" x2="30" y2="21.5" stroke="white"/>
<line x1="10" y1="16.5" x2="30" y2="16.5" stroke="white"/>
</svg>
