<svg width="16" height="17" viewBox="0 0 16 17" fill="none" xmlns="http://www.w3.org/2000/svg">
<path d="M2 4.02327C2 3.66965 2.14048 3.33051 2.39052 3.08047C2.64057 2.83042 2.97971 2.68994 3.33333 2.68994H5.52C5.65986 2.69005 5.79615 2.73414 5.90957 2.81597C6.02299 2.89781 6.1078 3.01325 6.152 3.14594L7.15067 6.14127C7.20127 6.2935 7.19528 6.45887 7.13381 6.60704C7.07234 6.75521 6.9595 6.87624 6.816 6.94794L5.31133 7.70128C6.04888 9.33363 7.35631 10.6411 8.98867 11.3786L9.742 9.87394C9.8137 9.73044 9.93473 9.6176 10.0829 9.55613C10.2311 9.49466 10.3964 9.48867 10.5487 9.53928L13.544 10.5379C13.6768 10.5822 13.7923 10.6671 13.8742 10.7806C13.956 10.8942 14 11.0306 14 11.1706V13.3566C14 13.7102 13.8595 14.0494 13.6095 14.2994C13.3594 14.5495 13.0203 14.6899 12.6667 14.6899H12C6.47733 14.6899 2 10.2126 2 4.68994V4.02327Z" stroke="#0039A6" stroke-width="1.33333" stroke-linecap="round" stroke-linejoin="round"/>
</svg>
